<svg xmlns="http://www.w3.org/2000/svg" viewBox="0 0 77.89 92.01"><g data-name="Layer 2"><g data-name="Layer 1"><path d="M5.73 29.65a5.5 5.5 0 00-4.06 1.67 5.47 5.47 0 00-1.67 4v23.94a5.52 5.52 0 001.67 4.06A5.5 5.5 0 005.73 65a5.43 5.43 0 004-1.67 5.58 5.58 0 001.64-4.06V35.32a5.47 5.47 0 00-1.67-4 5.44 5.44 0 00-3.97-1.67zM51.49 8.42l3.9-7.21a.72.72 0 00-.27-1.1.76.76 0 00-1.12.33L50 7.7a27.61 27.61 0 00-22 0L24 .44a.76.76 0 00-1.1-.33.72.72 0 00-.27 1.1l3.91 7.21a24.17 24.17 0 00-9.47 8.44 21.36 21.36 0 00-3.52 11.85h50.86a21.28 21.28 0 00-3.52-11.85 24.18 24.18 0 00-9.4-8.44zM28.91 19.1a2.09 2.09 0 01-1.52.64 2 2 0 01-1.48-.64 2.17 2.17 0 010-3 2 2 0 011.48-.64 2.09 2.09 0 011.52.64 2.12 2.12 0 010 3zm23.18 0a2 2 0 01-1.48.64 2.1 2.1 0 01-1.52-.64 2.12 2.12 0 010-3 2.1 2.1 0 011.52-.64 2 2 0 011.48.64 2.17 2.17 0 010 3zm-38.2 48.22a5.85 5.85 0 001.75 4.29 5.77 5.77 0 004.25 1.76h3.92v12.7a6.1 6.1 0 001.77 4 5.64 5.64 0 008 0 5.57 5.57 0 001.67-4V73.86h7.45v12.49a5.42 5.42 0 001.66 4 5.77 5.77 0 008.08 0 5.43 5.43 0 001.67-4v-13h4a5.61 5.61 0 004.15-1.76A5.92 5.92 0 0064 67.32V30.7H13.89zm57.54-37.64a5.14 5.14 0 00-2.51.95 5.57 5.57 0 00-2.44 4.69v23.94a5.52 5.52 0 001.67 4.06 5.44 5.44 0 004 1.67 5.7 5.7 0 005.73-5.73V35.32a5.44 5.44 0 00-1.67-4 5.7 5.7 0 00-4.78-1.64z" fill="#ff04cf" data-name="38002"/></g></g></svg>