<svg xmlns="http://www.w3.org/2000/svg" viewBox="0 0 74.34 91.35"><g data-name="Layer 2"><path d="M74.34 67.06v.61c-.21.44-.46.86-.63 1.32a54.49 54.49 0 01-11.42 18.36A11.09 11.09 0 0152 91.08a42.91 42.91 0 01-5.21-1.62A46.73 46.73 0 0041 87.79c-3.73-.63-7.24.38-10.63 1.92a14.36 14.36 0 01-7.5 1.58c-3.23-.34-5.64-2.19-7.73-4.47A57.28 57.28 0 011.8 62.33C0 55.41-.73 48.42.93 41.39 3.08 32.28 8.31 25.84 17.5 23c5.23-1.6 10.17-.49 14.92 1.73 3.54 1.65 7 1.87 10.5 0a32.18 32.18 0 014-1.52A21.39 21.39 0 0159 22.56a20.62 20.62 0 0113 8.54l-1.29.95c-7.34 5.43-10.29 14.14-7.58 22.67 1.8 5.82 5.87 9.7 11.21 12.34zM53.93 0a6.61 6.61 0 01-.7.26c-8.4 2.07-13.72 7.29-15.86 15.67a33.23 33.23 0 00-.51 5.07 13.29 13.29 0 008.37-1.93C52.37 14.74 55.69 8.31 55.45 0z" fill="#178ef9" data-name="Layer 1"/></g></svg>