<svg xmlns="http://www.w3.org/2000/svg" viewBox="0 0 98.78 91.46"><g data-name="Layer 2"><g data-name="Layer 1"><path d="M49.83 80.07H14.91c-1 0-2.43-.32-2.82-1s0-2.08.52-2.94c2.05-3.69 4.28-7.27 6.39-10.92a33.9 33.9 0 004.16-16.63c.06-3.2 0-6.4.06-9.6a26.2 26.2 0 0117.22-23.8 2.14 2.14 0 001.66-2.49 37.12 37.12 0 01.31-6.5 7.5 7.5 0 0114.73-.09 45.39 45.39 0 01.33 6.9 1.84 1.84 0 001.38 2 26 26 0 0117.54 24.66c.09 4.08.11 8.16.28 12.24a31.48 31.48 0 004.84 15q2.79 4.61 5.49 9.26c1.55 2.62.79 3.9-2.29 3.9zM38 83.83h23.4c-.82 3.69-5.88 7.32-10.53 7.61-5.67.34-11.09-2.81-12.87-7.61zM.17 41.78A52.78 52.78 0 0115.46 7a5.87 5.87 0 013.93-1.47 3.22 3.22 0 012.21 2.31 8 8 0 01-1.6 3.95c-2.8 4.26-6 8.26-8.53 12.69C8 30.81 7 37.91 6.71 45.09a3 3 0 01-3.15 3.21C1.41 48.4.37 47.12 0 45.14a6 6 0 010-1.2c.06-.72.12-1.44.17-2.16zm98.59.62c0 .81.06 1.77 0 2.73a3 3 0 01-3 3.16 3 3 0 01-3.55-2.75c-.35-2.61-.49-5.25-.84-7.86a45.66 45.66 0 00-11.2-24.26c-.63-.73-1.3-1.42-1.91-2.16-1.71-2.07-1.75-3.84-.11-5.26a3.46 3.46 0 015.08.76 130.93 130.93 0 019.11 12.58c4.18 7 5.87 14.82 6.42 23.06z" fill="#d9d9d9" data-name="Artwork 5"/></g></g></svg>