<svg xmlns="http://www.w3.org/2000/svg" viewBox="0 0 91.2 91.15"><g data-name="Layer 2"><g data-name="Layer 1"><path d="M28.6 78.46a9.44 9.44 0 01-6.88 3.71c-5.56.24-13-7.24-12.78-12.8a9.38 9.38 0 013.67-6.82c-.63-1.59-1.17-3.18-1.9-4.69a2.07 2.07 0 00-1.43-1C2.87 56.36 0 53.33 0 47v-3.69c.05-5.42 3.35-8.92 8.79-9.11A2 2 0 0011 32.5a40.64 40.64 0 011.57-4c-3-2.7-4.81-6.05-3.18-9.94a16.77 16.77 0 019.42-9.31c3.25-1.28 6.3-.18 8.72 2.28.8.8 1.38 1 2.41.49 1.31-.68 2.71-1.18 4.19-1.81 0-3.28.59-6.46 3.56-8.56A6.32 6.32 0 0140.61.3a51.15 51.15 0 019.5-.11c4 .49 6.63 3.88 6.79 8.2.05 1.56.51 2.27 2 2.64a24.74 24.74 0 013.41 1.39c1.52-1 2.84-2.41 4.43-2.9a9 9 0 015.5-.23 16.36 16.36 0 019.63 9.57c1.46 3.8-.36 7-3.3 9.64.67 1.61 1.27 3.25 2 4.82a1.87 1.87 0 001.32.8c6.5.55 9.28 3.55 9.28 10.12v3.46c0 5.39-3.4 8.89-8.79 9.16h-1.49a10.56 10.56 0 01-.45 1.14c-1.47 2.64-1.91 4.84.52 7.59s1.93 6.18-.25 9a38.2 38.2 0 01-5 5.29c-3.56 3.16-8 3.09-11.62 0-.51-.43-1-.92-1.49-1.41a11.31 11.31 0 01-1.15.45c-3 .8-4.72 2.24-4.95 5.8s-3.77 6.1-7.46 6.32a60.08 60.08 0 01-6.71 0c-4.58-.25-7.82-3.72-8-8.64a2.08 2.08 0 00-1.63-2.3c-1.37-.4-2.65-1.04-4.1-1.64zm36.87-32.88a19.87 19.87 0 10-19.9 19.79 20.07 20.07 0 0019.9-19.79z" fill="#ff04cf" data-name="Artwork 3"/></g></g></svg>