<svg xmlns="http://www.w3.org/2000/svg" viewBox="0 0 98 92.37"><g data-name="Layer 2"><path d="M37.11 63.43c-1.9-2.48-3.45-4.74-5.27-6.76a4.3 4.3 0 00-3-1.19C14.56 55.94 2.33 46.25.33 32.75-1.8 18.36 6.64 5.55 20.8 2.05a25.48 25.48 0 0120.84 3.52c1.82 1.21 3 1.12 5.06.37C52.57 3.76 58.59 2 64.63.28c2.48-.7 5-.21 5.36 3 .31 2.94-1.87 3.5-4.32 4.06-5.48 1.26-10.87 2.91-16.46 4.45 5 10.25 5.23 11.18 5 21.13 3.21-1.09 6.27-2.12 9.32-3.17 9.69-3.35 17.67-.15 22.35 9q5.44 10.63 10.78 21.32c2.39 4.77 1.75 7.55-2.53 10.84C85.5 77.51 77 84.19 68.16 90.48a11.65 11.65 0 01-7.51 1.82c-9.65-1.2-19.27-2.92-28.89-4.48-7.72-1.26-10-5.33-7.12-12.71 2.21-5.67 6.41-9.31 12.47-11.68zm53.36 1.11C86.5 56.66 82.68 49 78.8 41.42c-2.83-5.55-6.72-7-12.73-4.9-5.49 1.93-11 3.73-16.43 5.88-2.53 1-4 .7-5.58-1.57-3.64-5.14-7.49-10.15-11.45-15.06-3.37-4.18-9.47-3.49-10.79 1.39A9.19 9.19 0 0023.31 34c6.61 9.11 13.57 18 20.41 27 2.5 3.29 5 6.58 7.32 9.65-4.29 0-8.62-.64-12.65.17-4.63.93-7 4.71-7.9 9.57 10.53 1.72 20.73 3.41 30.94 5a4.34 4.34 0 002.85-.93c8.65-6.52 17.24-13.1 26.19-19.92zM47.13 32.23c1.5-12.83-7.1-23.39-18.74-24C17.21 7.59 7.33 17 7.26 28.28c-.06 10.32 8.61 20 17.89 19.5-2.53-3.36-5-6.55-7.35-9.77-4.93-6.67-4.14-14.79 1.86-19.36 6.27-4.77 14.34-3.48 19.48 3.14 2.53 3.21 5.01 6.55 7.99 10.44z" fill="#ff04cf" data-name="Layer 1"/></g></svg>