<svg xmlns="http://www.w3.org/2000/svg" viewBox="0 0 77.89 90.79"><defs><style>.cls-1{fill:#ff04cf}</style></defs><g id="Layer_2" data-name="Layer 2"><g id="Layer_1-2" data-name="Layer 1"><g id="Artwork_33" data-name="Artwork 33"><path class="cls-1" d="M1.58 1.2A5.66 5.66 0 015.47 0H71.4c2.78 0 3.8.28 5 1.48a5.46 5.46 0 011.48 3.15v82a.48.48 0 00-.08.16 4.73 4.73 0 01-1.84 3 5.88 5.88 0 01-2.25 1H4.17a.55.55 0 00-.17-.08 4.76 4.76 0 01-3-1.88 5.8 5.8 0 01-1-2.21V4.17A4 4 0 011.58 1.2zm4.87 5.28v77.86h65V6.45z"/><path class="cls-1" d="M21.29 25.8c-1.43 0-2-.8-1.77-2.48a7.45 7.45 0 000-2 1.6 1.6 0 011.62-2h35.62A1.67 1.67 0 0158.42 21v3a1.58 1.58 0 01-1.77 1.78zm0 23.32c-1.43 0-2-.8-1.77-2.48a7.45 7.45 0 000-2 1.6 1.6 0 011.62-2h35.62a1.67 1.67 0 011.66 1.65v3.06a1.58 1.58 0 01-1.76 1.78zm.1 23.81c-1.42 0-2-.79-1.76-2.45a7.8 7.8 0 000-2 1.59 1.59 0 011.61-2h35.42a1.54 1.54 0 011.65 1.64v3.13a1.55 1.55 0 01-1.7 1.68z"/></g></g></g></svg>