<svg xmlns="http://www.w3.org/2000/svg" viewBox="0 0 119.48 85.98"><g data-name="Layer 2"><path d="M43.31 85.89v-9.73c0-1 0-1-1-1.18a81.32 81.32 0 01-15.61-4.33 56.8 56.8 0 01-16.42-9.47 30.18 30.18 0 01-8.8-11.71A19.93 19.93 0 010 42a20.66 20.66 0 011.84-8.4 30.71 30.71 0 018.53-10.9 56.85 56.85 0 0118.34-10.12c3-1 6.06-1.79 9.1-2.67a9.67 9.67 0 011-.17v3.48c0 .17-.34.41-.56.47a57.79 57.79 0 00-10 3.74C23.24 19.9 18.7 23 15.46 27.6a15.16 15.16 0 00-2.92 10A18.24 18.24 0 0016.9 48a31.51 31.51 0 0015.6 10 44 44 0 0010 1.67c.58 0 .81-.14.81-.76V48.13l.19-.16L72.07 67 43.53 86zm29-73.29a58.78 58.78 0 0116.25 5.62 31 31 0 0110.89 9 15.32 15.32 0 01.53 18 28.9 28.9 0 01-10.23 9.11c-.79.45-1.59.87-2.48 1.36.31.22.53.39.75.53l7.16 4.64c2.31 1.49 4.64 3 6.93 4.49a1.18 1.18 0 001.59 0c.62-.47 1.3-.85 1.94-1.3a34.7 34.7 0 0011-11.5 20.54 20.54 0 00.66-19.9 32.06 32.06 0 00-9.75-11.39 63.22 63.22 0 00-20.67-10 88.67 88.67 0 00-14.52-3c-.61-.07-.75-.32-.74-.88V.99c0-.26 0-.52-.09-.94L54.18 11.52 71.38 23l.19-.13V12.5c.31.04.51.06.71.1z" fill="#ff04cf" data-name="Layer 1"/></g></svg>