<svg xmlns="http://www.w3.org/2000/svg" viewBox="0 0 92 91"><g data-name="Layer 2"><g data-name="Layer 1"><path d="M1.44 0h37.12A1.45 1.45 0 0140 1.44v37.12A1.45 1.45 0 0138.56 40H1.44A1.45 1.45 0 010 38.56V1.44A1.45 1.45 0 011.44 0zm52 0h37.12A1.45 1.45 0 0192 1.44v37.12A1.45 1.45 0 0190.56 40H53.44A1.45 1.45 0 0152 38.56V1.44A1.45 1.45 0 0153.44 0zm-52 51h37.12A1.45 1.45 0 0140 52.44v37.12A1.45 1.45 0 0138.56 91H1.44A1.45 1.45 0 010 89.56V52.44A1.45 1.45 0 011.44 51zm52 0h37.12A1.45 1.45 0 0192 52.44v37.12A1.45 1.45 0 0190.56 91H53.44A1.45 1.45 0 0152 89.56V52.44A1.45 1.45 0 0153.44 51z" fill="#ff04cf" data-name="interface (1)"/></g></g></svg>