<svg xmlns="http://www.w3.org/2000/svg" xmlns:xlink="http://www.w3.org/1999/xlink" viewBox="0 0 217.23 207.03"><defs><clipPath id="clip-path" transform="translate(36.97 2.4)"><path class="cls-1" d="M0 0h141.81v187.92H0z"/></clipPath><clipPath id="clip-path-3" transform="translate(36.97 2.4)"><path class="cls-1" d="M.22 109.18l39.1-22.53-.02-29.27L.27 34.83l-.05 74.35z"/></clipPath><clipPath id="clip-path-5" transform="translate(36.97 2.4)"><path class="cls-1" d="M.24 34.83H39.3v51.04H.24z"/></clipPath><clipPath id="clip-path-6" transform="translate(36.97 2.4)"><path class="cls-1" d="M.24 14.2v20.69L77.2 79.32l39.09-22.67L21.51 1.92A14 14 0 0014.45 0 14.2 14.2 0 00.24 14.2"/></clipPath><clipPath id="clip-path-7" transform="translate(36.97 2.4)"><path class="cls-1" d="M39.09 101.38v45.25l95.79-55.22a13.73 13.73 0 006.93-11.94v-.11a13.74 13.74 0 00-6.93-12L116.2 56.63z"/></clipPath><clipPath id="clip-path-9" transform="translate(36.97 2.4)"><path class="cls-1" d="M39.09 101.47h23.78v45.16H39.09z"/></clipPath><clipPath id="clip-path-10" transform="translate(36.97 2.4)"><path class="cls-1" d="M13.65 116.12a26.82 26.82 0 00-13.65 23v48.76l39.07-22.48v-64.02z"/></clipPath><linearGradient id="linear-gradient" x1="-485.99" y1="-357.07" x2="-485.51" y2="-357.07" gradientTransform="matrix(154.54 0 0 -154.54 75084.85 -55108.21)" gradientUnits="userSpaceOnUse"><stop offset="0" stop-color="#ff00ce"/><stop offset="1" stop-color="#ff00ce"/></linearGradient><linearGradient id="linear-gradient-2" x1="-486.01" y1="-356.67" x2="-485.53" y2="-356.67" gradientTransform="matrix(162.16 0 0 -162.16 78830.27 -57798.34)" xlink:href="#linear-gradient"/><linearGradient id="linear-gradient-3" x1="-481.85" y1="-351.08" x2="-481.37" y2="-351.08" gradientTransform="matrix(-258.36 0 0 258.36 -124345.34 90807.46)" gradientUnits="userSpaceOnUse"><stop offset="0" stop-color="#1593ff"/><stop offset="1" stop-color="#1593ff"/></linearGradient><linearGradient id="linear-gradient-4" x1="-482.45" y1="-349.35" x2="-481.97" y2="-349.35" gradientTransform="matrix(-158.98 0 0 158.98 -76642.81 55684.77)" xlink:href="#linear-gradient-3"/><style>.cls-1{fill:none}.cls-2{clip-path:url(#clip-path)}.cls-7{fill:#00126a}</style></defs><g id="Layer_2" data-name="Layer 2"><g id="Layer_1-2" data-name="Layer 1"><g class="cls-2" id="Artwork_58" data-name="Artwork 58"><g class="cls-2"><g clip-path="url(#clip-path-3)"><path transform="rotate(-88.81 39.483 54.334)" fill="url(#linear-gradient)" d="M-17.8 51.69h75.14v40.64H-17.8z"/></g><g clip-path="url(#clip-path-5)"><path class="cls-7" d="M76.27 59.78v28.5l-.04-.05-39.02-51 39.02 22.53.04.02z"/></g><g clip-path="url(#clip-path-6)"><path transform="rotate(-88.81 77.98 21.984)" fill="url(#linear-gradient-2)" d="M17.41-19.17h81.7V98.49h-81.7z"/></g><g clip-path="url(#clip-path-7)"><path transform="rotate(-29.35 113.522 32.238)" fill="url(#linear-gradient-3)" d="M23.63 37.23h133.65v128.79H23.63z"/></g><g clip-path="url(#clip-path-9)"><path class="cls-7" d="M99.84 135.32l-23.78 13.72v-45.17l23.78 31.45z"/></g><g clip-path="url(#clip-path-10)"><path transform="rotate(-29.35 42.619 75.265)" fill="url(#linear-gradient-4)" d="M-18.7 97.36h76.49v94.59H-18.7z"/></g></g></g></g></g></svg>