<svg xmlns="http://www.w3.org/2000/svg" xmlns:xlink="http://www.w3.org/1999/xlink" viewBox="0 0 541.7 118.38"><defs><clipPath id="clip-path" transform="translate(21.14 1.37)"><path class="cls-1" d="M0 0h81.08v107.45H0z"/></clipPath><clipPath id="clip-path-3" transform="translate(21.14 1.37)"><path class="cls-1" d="M.12 62.43l22.36-12.88-.01-16.74L.16 19.92.12 62.43z"/></clipPath><clipPath id="clip-path-5" transform="translate(21.14 1.37)"><path class="cls-1" d="M.14 19.92h22.33v29.19H.14z"/></clipPath><clipPath id="clip-path-6" transform="translate(21.14 1.37)"><path class="cls-1" d="M.14 8.12V20l44 25.4 22.35-13L12.3 1.1a8 8 0 00-4-1.1A8.12 8.12 0 00.14 8.12"/></clipPath><clipPath id="clip-path-7" transform="translate(21.14 1.37)"><path class="cls-1" d="M22.35 58v25.84l54.77-31.57a7.85 7.85 0 004-6.83v-.06a7.85 7.85 0 00-4-6.83l-10.68-6.17z"/></clipPath><clipPath id="clip-path-9" transform="translate(21.14 1.37)"><path class="cls-1" d="M22.35 58.02h13.6v25.82h-13.6z"/></clipPath><clipPath id="clip-path-10" transform="translate(21.14 1.37)"><path class="cls-1" d="M7.81 66.4A15.33 15.33 0 000 79.55v27.92L22.35 94.6V58z"/></clipPath><linearGradient id="linear-gradient" x1="-431.8" y1="506.56" x2="-431.53" y2="506.56" gradientTransform="matrix(154.54 0 0 -154.54 66718.64 78322.94)" gradientUnits="userSpaceOnUse"><stop offset="0" stop-color="#ff00ce"/><stop offset="1" stop-color="#ff00ce"/></linearGradient><linearGradient id="linear-gradient-2" x1="-432.18" y1="507.04" x2="-431.91" y2="507.04" gradientTransform="matrix(162.16 0 0 -162.16 70093.47 82243.33)" xlink:href="#linear-gradient"/><linearGradient id="linear-gradient-3" x1="-434.88" y1="508.85" x2="-434.6" y2="508.85" gradientTransform="matrix(-258.36 0 0 258.36 -112271.76 -131409.52)" gradientUnits="userSpaceOnUse"><stop offset="0" stop-color="#1593ff"/><stop offset="1" stop-color="#1593ff"/></linearGradient><linearGradient id="linear-gradient-4" x1="-436.58" y1="508.55" x2="-436.31" y2="508.55" gradientTransform="matrix(-158.98 0 0 158.98 -69375.28 -80766.79)" xlink:href="#linear-gradient-3"/><style>.cls-1{fill:none}.cls-2{clip-path:url(#clip-path)}.cls-7{fill:#00126a}</style></defs><g id="Layer_2" data-name="Layer 2"><g id="Layer_1-2" data-name="Layer 1"><g class="cls-2" id="Artwork_58" data-name="Artwork 58"><g class="cls-2"><g clip-path="url(#clip-path-3)"><path transform="rotate(-88.81 22.581 31.069)" fill="url(#linear-gradient)" d="M-10.18 29.55h42.97v23.24h-42.97z"/></g><g clip-path="url(#clip-path-5)"><path class="cls-7" d="M43.61 34.19v16.29l-.02-.03-22.31-29.16 22.31 12.88.02.02z"/></g><g clip-path="url(#clip-path-6)"><path transform="rotate(-88.81 44.587 12.574)" fill="url(#linear-gradient-2)" d="M9.96-10.96h46.72v67.28H9.96z"/></g><g clip-path="url(#clip-path-7)"><path transform="rotate(-29.35 64.91 18.426)" fill="url(#linear-gradient-3)" d="M13.51 21.29h76.42v73.64H13.51z"/></g><g clip-path="url(#clip-path-9)"><path class="cls-7" d="M57.09 77.37l-13.6 7.85V59.4l13.6 17.97z"/></g><g clip-path="url(#clip-path-10)"><path transform="rotate(-29.35 24.375 43.026)" fill="url(#linear-gradient-4)" d="M-10.69 55.67h43.74v54.09h-43.74z"/></g></g></g><path d="M138 47.85v4.33c0 5.12-1.68 8-7.42 8h-3.44c-2.75 0-4.33-.78-5.19-2.29v8.41a.81.81 0 01-.9.89h-2.93a.81.81 0 01-.9-.89V40.9a.81.81 0 01.9-.9h2.93a.81.81 0 01.9.9v1.39c.86-1.5 2.44-2.29 5.19-2.29h3.44c5.75 0 7.42 2.87 7.42 7.85zm-4.73-.43c0-2.44-.64-3-2.79-3h-5.74c-1.93 0-2.79.5-2.79 3v5.26c0 2.55.86 3 2.79 3h5.74c2.15 0 2.79-.58 2.79-3zM175.52 40h2.93a.81.81 0 01.9.9v18.34a.81.81 0 01-.9.89h-2.93a.81.81 0 01-.9-.89v-1.43c-.86 1.5-2.44 2.32-5.19 2.32h-2.62c-5.73 0-7.41-2.83-7.41-8V40.9a.81.81 0 01.89-.9h2.94a.81.81 0 01.89.9v11.78c0 2.51.65 3 2.8 3h4.91c1.93 0 2.79-.47 2.79-3V40.9a.81.81 0 01.9-.9zm25.64 19.24v-2.62a.81.81 0 01.9-.89h9.85c2 0 2.72-.43 2.72-1.69s-.53-1.57-2.43-1.79l-5.52-.61c-4.48-.5-6-2.22-6-5.94 0-3.91 2.3-5.7 7.21-5.7h9.6a.81.81 0 01.89.9v2.61a.81.81 0 01-.89.9H208c-1.79 0-2.61.39-2.61 1.75 0 1.18.5 1.54 2.15 1.72l5.41.61c5 .61 6.41 2.44 6.41 6.06 0 4-2.26 5.58-7.52 5.58h-9.82a.81.81 0 01-.86-.89zM260.49 48v11.24a.81.81 0 01-.9.89h-2.93a.81.81 0 01-.9-.89V47.45c0-2.47-.65-3-2.79-3h-5c-1.9 0-2.79.5-2.79 3v11.79a.81.81 0 01-.9.89h-2.94a.81.81 0 01-.89-.89v-25.4a.81.81 0 01.89-.9h2.94a.82.82 0 01.9.9v8.49c.86-1.51 2.43-2.33 5.19-2.33h2.72c5.75 0 7.4 2.83 7.4 8zm21.31 4.18v-4.33c0-5 1.65-7.85 7.42-7.85h5.94c5.77 0 7.42 2.87 7.42 7.85v4.33c0 5.12-1.65 8-7.42 8h-5.94c-5.77-.05-7.42-2.88-7.42-8zm13.26 3.55c2.15 0 2.79-.58 2.79-3v-5.31c0-2.44-.61-3-2.79-3h-5.73c-2.19 0-2.8.57-2.8 3v5.26c0 2.47.65 3 2.8 3zm29.09 3.51v-25.4a.81.81 0 01.89-.9H328a.82.82 0 01.9.9v25.4a.81.81 0 01-.9.89h-3a.81.81 0 01-.85-.89zm26.29-7.06v-4.33c0-5 1.65-7.85 7.42-7.85h5.94c5.77 0 7.42 2.87 7.42 7.85v4.33c0 5.12-1.65 8-7.42 8h-5.94c-5.77-.05-7.42-2.88-7.42-8zm13.25 3.55c2.15 0 2.8-.58 2.8-3v-5.31c0-2.44-.61-3-2.8-3H358c-2.18 0-2.79.57-2.79 3v5.26c0 2.47.64 3 2.79 3zm31.85 10.57v-2.62a.82.82 0 01.9-.9h9.13c2.15 0 2.83-.78 2.83-3v-3.3c-.82 1.62-2.33 2.44-5.19 2.44h-3.44c-5.77 0-7.42-2.83-7.42-8v-3.07c0-5 1.65-7.85 7.42-7.85h3.44c2.86 0 4.37.82 5.19 2.44V40.9a.81.81 0 01.9-.9h2.94a.81.81 0 01.89.9v18.34c0 4.91-1.83 7.95-7.56 7.95h-9.13a.81.81 0 01-.9-.89zm10.07-11.83c1.9 0 2.79-.46 2.79-3.08v-4c0-2.51-.86-3-2.79-3h-5.73c-2.19 0-2.8.57-2.8 3v4c0 2.51.65 3.08 2.8 3.08zM435.13 37v-3.16a.81.81 0 01.89-.9H439a.82.82 0 01.9.9V37a.82.82 0 01-.9.9h-3a.81.81 0 01-.87-.9zm0 22.25V40.9a.81.81 0 01.87-.9h3a.82.82 0 01.9.9v18.34a.81.81 0 01-.9.89h-3a.81.81 0 01-.87-.89zm26.29-7.07v-4.33c0-5 1.65-7.85 7.42-7.85h5.05c5.77 0 7.41 2.87 7.41 7.85v3.22a.81.81 0 01-.89.9h-14.26v.71c0 2.47.64 3 2.79 3h9.86a.81.81 0 01.89.89v2.62a.81.81 0 01-.89.89h-10c-5.73.05-7.38-2.78-7.38-7.9zm15.15-3.83v-.93c0-2.44-.6-3-2.79-3h-4.84c-2.18 0-2.79.57-2.79 3v.93zm25.76 10.89v-2.62a.81.81 0 01.9-.89h9.85c2 0 2.72-.43 2.72-1.69s-.54-1.57-2.44-1.79l-5.51-.61c-4.48-.5-6-2.22-6-5.94 0-3.91 2.29-5.7 7.2-5.7h9.6a.81.81 0 01.9.9v2.61a.82.82 0 01-.9.9h-9.49c-1.79 0-2.62.39-2.62 1.75 0 1.18.51 1.54 2.15 1.72l5.41.61c5 .61 6.42 2.44 6.42 6.06 0 4-2.26 5.58-7.53 5.58h-9.81a.81.81 0 01-.85-.89z" transform="translate(21.14 1.37)" fill="#1593ff"/></g></g></svg>