<svg id="Layer_1" data-name="Layer 1" xmlns="http://www.w3.org/2000/svg" xmlns:xlink="http://www.w3.org/1999/xlink" viewBox="0 0 520.47 108.22"><defs><linearGradient id="New_Gradient_Swatch_copy" x1="10.82" y1="63.1" x2="11.71" y2="20.3" gradientUnits="userSpaceOnUse"><stop offset="0" stop-color="#ff00ce"/><stop offset="1" stop-color="#ff00ce"/></linearGradient><linearGradient id="New_Gradient_Swatch_copy-2" x1="33.03" y1="45.44" x2="33.96" y2=".53" xlink:href="#New_Gradient_Swatch_copy"/><linearGradient id="New_Gradient_Swatch" x1="79.16" y1="39.16" x2="16.77" y2="74.24" gradientUnits="userSpaceOnUse"><stop offset="0" stop-color="#1593ff"/><stop offset="1" stop-color="#1593ff"/></linearGradient><linearGradient id="New_Gradient_Swatch-2" x1="30.45" y1="72.51" x2="-7.93" y2="94.1" xlink:href="#New_Gradient_Swatch"/><style>.cls-1{fill:#1593ff}.cls-3{fill:#00126a;opacity:.35}.cls-7{fill:#ff00ce}</style></defs><path class="cls-1" d="M137.92 43.33v4.34c0 5.12-1.69 7.95-7.42 7.95h-3.44c-2.76 0-4.33-.79-5.19-2.29v8.45a.81.81 0 01-.9.9H118a.81.81 0 01-.89-.9v-25.4a.81.81 0 01.89-.89h3a.81.81 0 01.9.89v1.4c.86-1.5 2.43-2.29 5.19-2.29h3.44c5.7 0 7.39 2.86 7.39 7.84zm-4.73-.43c0-2.43-.65-3-2.8-3h-5.73c-1.93 0-2.79.51-2.79 3v5.27c0 2.54.86 3 2.79 3h5.73c2.15 0 2.8-.57 2.8-3zM175.42 35.49h2.94a.81.81 0 01.9.89v18.35a.81.81 0 01-.9.89h-2.94a.81.81 0 01-.89-.89v-1.44c-.86 1.51-2.44 2.33-5.2 2.33h-2.61c-5.73 0-7.42-2.83-7.42-7.95V36.38a.81.81 0 01.9-.89h2.94a.81.81 0 01.89.89v11.79c0 2.51.65 3 2.8 3h4.9c1.94 0 2.8-.46 2.8-3V36.38a.81.81 0 01.89-.89zM201.07 54.73v-2.62a.82.82 0 01.9-.9h9.85c2 0 2.72-.43 2.72-1.68s-.54-1.53-2.43-1.79l-5.52-.61c-4.48-.5-6-2.22-6-6 0-3.9 2.3-5.69 7.2-5.69h9.6a.81.81 0 01.9.89V39a.81.81 0 01-.9.89H208c-1.79 0-2.61.4-2.61 1.76 0 1.18.5 1.54 2.14 1.72l5.41.61c5 .61 6.42 2.43 6.42 6.05 0 4-2.26 5.59-7.53 5.59H202a.81.81 0 01-.93-.89zM260.4 43.44v11.29a.81.81 0 01-.9.89h-2.94a.81.81 0 01-.89-.89V42.94c0-2.47-.65-3-2.8-3h-5c-1.9 0-2.8.51-2.8 3v11.79a.81.81 0 01-.89.89h-2.94a.81.81 0 01-.89-.89v-25.4a.81.81 0 01.89-.9h2.94a.81.81 0 01.89.9v8.49c.86-1.51 2.44-2.33 5.2-2.33H253c5.75 0 7.4 2.83 7.4 7.95zM281.71 47.67v-4.34c0-5 1.65-7.84 7.42-7.84h5.94c5.77 0 7.42 2.86 7.42 7.84v4.34c0 5.12-1.65 7.95-7.42 7.95h-5.94c-5.77 0-7.42-2.83-7.42-7.95zM295 51.21c2.15 0 2.79-.57 2.79-3V42.9c0-2.43-.61-3-2.79-3h-5.74c-2.18 0-2.79.58-2.79 3v5.27c0 2.47.64 3 2.79 3zM324.05 54.73v-25.4a.82.82 0 01.9-.9h2.94a.81.81 0 01.89.9v25.4a.81.81 0 01-.89.89H325a.81.81 0 01-.95-.89zM350.35 47.67v-4.34c0-5 1.65-7.84 7.41-7.84h5.95c5.77 0 7.42 2.86 7.42 7.84v4.34c0 5.12-1.65 7.95-7.42 7.95h-5.95c-5.76 0-7.41-2.83-7.41-7.95zm13.25 3.54c2.15 0 2.8-.57 2.8-3V42.9c0-2.43-.61-3-2.8-3h-5.73c-2.18 0-2.79.58-2.79 3v5.27c0 2.47.64 3 2.79 3zM395.45 61.78v-2.61a.81.81 0 01.89-.9h9.14c2.15 0 2.83-.79 2.83-3v-3.3c-.82 1.61-2.33 2.44-5.19 2.44h-3.44c-5.77 0-7.42-2.83-7.42-8v-3.08c0-5 1.65-7.84 7.42-7.84h3.44c2.86 0 4.37.82 5.19 2.43v-1.54a.81.81 0 01.9-.89h2.93a.81.81 0 01.9.89v18.35c0 4.9-1.83 8-7.56 8h-9.14a.81.81 0 01-.89-.95zM405.52 50c1.89 0 2.79-.47 2.79-3.08v-4c0-2.5-.86-3-2.79-3h-5.74c-2.18 0-2.79.58-2.79 3v4c0 2.51.64 3.08 2.79 3.08zM435 32.48v-3.15a.82.82 0 01.9-.9h2.94a.81.81 0 01.89.9v3.15a.81.81 0 01-.89.89h-2.94a.81.81 0 01-.9-.89zm0 22.25V36.38a.81.81 0 01.9-.89h2.94a.81.81 0 01.89.89v18.35a.81.81 0 01-.89.89h-2.94a.81.81 0 01-.9-.89zM461.33 47.67v-4.34c0-5 1.65-7.84 7.41-7.84h5.05c5.77 0 7.42 2.86 7.42 7.84v3.23a.81.81 0 01-.89.89h-14.26v.72c0 2.47.64 3 2.79 3h9.85a.82.82 0 01.9.9v2.62a.81.81 0 01-.9.89h-10c-5.7.04-7.37-2.79-7.37-7.91zm15.15-3.84v-.93c0-2.43-.61-3-2.79-3h-4.84c-2.18 0-2.79.58-2.79 3v.93zM502.24 54.73v-2.62a.81.81 0 01.89-.9H513c2 0 2.72-.43 2.72-1.68s-.54-1.58-2.44-1.79l-5.51-.61c-4.48-.5-5.95-2.22-5.95-6 0-3.9 2.29-5.69 7.2-5.69h9.6a.81.81 0 01.9.89V39a.81.81 0 01-.9.89h-9.49c-1.79 0-2.62.4-2.62 1.76 0 1.18.5 1.54 2.15 1.72l5.41.61c5 .61 6.41 2.43 6.41 6.05 0 4-2.25 5.59-7.52 5.59h-9.82a.81.81 0 01-.9-.89z"/><path fill="url(#New_Gradient_Swatch_copy)" d="M.16 20.06l22.47 12.99.02 16.85L.13 62.88l.03-42.82z"/><path class="cls-3" d="M22.63 33.05v16.4l-.02-.03L.14 20.06l22.47 12.97.02.02z"/><path d="M.15 20.1V8.18a8.16 8.16 0 0112.24-7.07L67 32.62 44.46 45.68z" fill="url(#New_Gradient_Swatch_copy-2)"/><path d="M77.68 38.82a8 8 0 010 13.82l-55.17 31.8V58.38l44.41-25.77z" fill="url(#New_Gradient_Swatch)"/><path class="cls-3" d="M36.21 76.54l-13.7 7.9v-26l13.7 18.1z"/><path d="M0 108.22V80.56a15.43 15.43 0 017.86-13.69l14.65-8.48v36.89z" fill="url(#New_Gradient_Swatch-2)"/><path class="cls-7" d="M151.88 90.94a7.61 7.61 0 117.78-7.61 7.54 7.54 0 01-7.78 7.61zm0-12.89c-2.88 0-4.77 2.16-4.77 5.28s1.89 5.28 4.77 5.28 4.71-2.16 4.71-5.28-1.87-5.28-4.71-5.28zM180.3 90.53h-2.14l-2.85-8.61a10.34 10.34 0 01-.29-1.11c0 .07-.22.82-.31 1.11l-2.86 8.61h-2.13l-4.95-14.4h2.91l2.9 9.05c.1.31.26 1.25.29 1.34 0-.09.24-1 .36-1.34l2.77-9.05h2.09l2.81 9.05.33 1.34a10.16 10.16 0 01.29-1.34l2.88-9.05h2.81zM201.73 90.53L194.2 81v9.5h-2.62V76.13h2l7.54 9.51v-9.51h2.61v14.4zM228.08 84.77v5.76h-2.92v-5.76l-5.65-8.64h3.2l4 6.27 4-6.27h3.09zM245.63 90.94a7.61 7.61 0 117.77-7.61 7.55 7.55 0 01-7.77 7.61zm0-12.89c-2.88 0-4.78 2.16-4.78 5.28s1.9 5.28 4.78 5.28 4.7-2.16 4.7-5.28-1.87-5.28-4.7-5.28zM267.08 90.94c-3.79 0-6.62-2.18-6.62-7.06v-7.75h3v7.66c0 3.12 1.35 4.63 3.7 4.63s3.7-1.51 3.7-4.63v-7.66h2.85v7.75c-.03 4.88-2.84 7.06-6.63 7.06zM293.36 90.53h-3.21l-4-5.73h-1.8v5.73h-2.93v-14.4h5.67c3.41 0 4.87 2 4.87 4.35a3.91 3.91 0 01-2.88 4zm-9-7.8h2.26c1.82 0 2.47-1 2.47-2.23s-.65-2.28-2.47-2.28h-2.26zM309.44 90.53v-14.4h9.39v2.28h-6.46v3.39h5.25v2.28h-5.25v4.17h6.46v2.28zM336.27 90.53L328.74 81v9.5h-2.62V76.13h2l7.54 9.51v-9.51h2.61v14.4zM353 90.94a7.4 7.4 0 01-7.65-7.61c0-4.66 3.65-7.51 7.85-7.51a9 9 0 015.11 1.46V80a7.14 7.14 0 00-4.83-1.78c-3 0-5.08 2-5.08 5.28s2 5.28 4.92 5.28a6 6 0 002.78-.6v-2.86h-2.54v-2.16h5.35v6.36a14.68 14.68 0 01-5.91 1.42zM376.38 90.53L374.91 87h-5.83l-1.46 3.55h-2.84l6.12-14.4h2.28l6.12 14.4zM372 79.71l-2.14 5.23h4.25zM391.67 90.94a7.4 7.4 0 01-7.67-7.61c0-4.66 3.65-7.51 7.85-7.51a9 9 0 015.15 1.46V80a7.14 7.14 0 00-4.83-1.78c-3 0-5.08 2-5.08 5.28s2 5.28 4.92 5.28a6 6 0 002.78-.6v-2.86h-2.54v-2.16h5.35v6.36a14.67 14.67 0 01-5.93 1.42zM405.3 90.53v-14.4h9.38v2.28h-6.46v3.39h5.26v2.28h-5.26v4.17h6.46v2.28zM434.94 90.53V81.7c0-.34.07-1.27.09-1.37l-.53 1.37-3.86 8.83h-1.8L425 81.7c-.15-.34-.46-1.22-.51-1.37 0 .07.07 1 .07 1.37v8.83H422v-14.4h3.12l4.75 10.54 4.73-10.54h3v14.4zM445.35 90.53v-14.4h9.39v2.28h-6.46v3.39h5.26v2.28h-5.26v4.17h6.46v2.28zM472.18 90.53L464.65 81v9.5H462V76.13h2l7.54 9.51v-9.51h2.61v14.4zM488.43 78.41v12.12h-2.93V78.41h-4.87v-2.28h12.67v2.28z"/></svg>