<svg xmlns="http://www.w3.org/2000/svg" viewBox="0 0 90.78 90.78"><g data-name="Layer 2"><path d="M79.44 0h-68.1A11.34 11.34 0 000 11.34v68.1a11.34 11.34 0 0011.34 11.34h68.1a11.33 11.33 0 0011.34-11.34v-68.1A11.34 11.34 0 0079.44 0zM11.66 7.5H79.5a3.78 3.78 0 013.78 3.78v26.78L70.86 25.62a3.75 3.75 0 00-5.33 0L39 52.23l-9.59-9.61a3.77 3.77 0 00-5.33 0L7.88 58.85V11.28a3.78 3.78 0 013.78-3.78zM79.5 83.28H11.66a3.78 3.78 0 01-3.78-3.78v-9.77l18.85-18.9 21.84 21.89a3.77 3.77 0 005.33-5.34l-9.59-9.61L68.2 33.83l15.08 15.11V79.5a3.78 3.78 0 01-3.78 3.78zM30.4 22.67a7.56 7.56 0 11-7.56-7.55 7.55 7.55 0 017.56 7.55z" fill="#178ef9" data-name="Layer 1"/></g></svg>